<?xml version="1.0" standalone="no"?>
<!DOCTYPE svg PUBLIC "-//W3C//DTD SVG 20010904//EN"
 "http://www.w3.org/TR/2001/REC-SVG-20010904/DTD/svg10.dtd">
<svg version="1.0" xmlns="http://www.w3.org/2000/svg"
 width="597.000000pt" height="149.000000pt" viewBox="0 0 597.000000 149.000000"
 preserveAspectRatio="xMidYMid meet">

<g transform="translate(0.000000,149.000000) scale(0.100000,-0.100000)"
fill="#000000" stroke="none">
<path d="M0 1275 l0 -215 388 0 387 0 30 48 c73 116 213 220 360 269 70 23 96
26 210 26 114 0 140 -3 210 -26 44 -15 109 -43 145 -64 73 -43 195 -160 225
-216 l20 -37 162 0 163 0 0 35 c0 35 0 35 45 35 45 0 45 0 45 -35 l0 -35 180
0 180 0 0 -330 0 -330 -387 0 -388 0 -28 -44 c-49 -78 -166 -180 -258 -225
-114 -56 -183 -72 -310 -72 -126 -1 -226 23 -331 78 -80 42 -194 144 -239 214
l-32 49 -184 0 -183 0 0 -35 c0 -35 0 -35 -45 -35 -45 0 -45 0 -45 35 l0 35
-160 0 -160 0 0 -200 0 -200 1759 0 1759 0 6 33 c62 345 258 1418 261 1435 l5
22 -1895 0 -1895 0 0 -215z m2702 -1066 c11 -6 26 -26 34 -45 12 -29 12 -39 0
-68 -17 -40 -42 -56 -86 -56 -43 0 -90 47 -90 90 0 65 82 111 142 79z"/>
<path d="M2668 185 c32 -14 44 -46 22 -60 -8 -5 -7 -11 1 -21 10 -12 14 -12
20 -2 15 23 10 48 -16 73 -13 14 -32 25 -42 25 -11 -1 -5 -6 15 -15z"/>
<path d="M2597 163 c-11 -10 -8 -61 3 -68 6 -4 10 10 10 34 0 42 -2 46 -13 34z"/>
<path d="M2640 150 c0 -5 7 -10 15 -10 8 0 15 5 15 10 0 6 -7 10 -15 10 -8 0
-15 -4 -15 -10z"/>
<path d="M2640 102 c0 -12 -6 -22 -12 -22 -7 0 -5 -5 6 -11 11 -7 25 -8 35 -3
15 8 14 11 -6 33 -23 24 -23 24 -23 3z"/>
<path d="M4497 1475 c135 -37 252 -127 301 -233 35 -76 42 -205 17 -298 -20
-73 -76 -166 -125 -207 -80 -68 -210 -106 -316 -92 -52 6 -55 8 -52 32 3 21
12 28 61 43 73 23 119 58 154 118 27 46 28 50 25 182 -3 172 3 212 35 250 25
30 25 31 8 50 -10 11 -36 25 -57 32 -83 25 -171 -37 -183 -129 -14 -106 -44
-148 -122 -174 -37 -12 -273 -7 -352 7 l-34 7 6 -63 c14 -129 84 -225 209
-283 37 -18 68 -38 68 -45 0 -13 -107 -607 -117 -649 -5 -23 -4 -23 100 -23
l106 0 11 58 c67 319 63 307 93 310 17 2 27 -1 27 -9 0 -10 3 -10 12 -1 22 22
86 14 113 -13 47 -46 29 -177 -29 -223 -38 -29 -80 -36 -115 -19 -34 17 -36
15 -46 -57 l-7 -46 507 0 c484 0 506 1 486 18 -11 9 -22 28 -23 42 -3 21 1 25
21 22 13 -1 31 -11 38 -22 26 -37 84 -20 101 30 10 28 10 29 -8 20 -36 -19
-80 -12 -111 19 -25 25 -29 37 -29 81 0 62 31 125 72 146 37 19 102 18 119 -2
11 -14 13 -14 21 0 5 9 20 16 34 16 19 0 24 -4 20 -17 -2 -10 -17 -79 -32
-153 -25 -120 -32 -139 -60 -168 l-32 -32 279 0 279 0 0 103 c0 101 -1 102
-17 69 -21 -43 -55 -69 -102 -77 -88 -15 -148 47 -135 137 14 90 65 138 149
138 38 0 52 -5 76 -29 l29 -29 0 589 0 589 -762 -1 c-675 0 -757 -2 -711 -14z
m29 -229 c8 -34 -2 -46 -36 -46 -33 0 -50 31 -30 55 20 24 59 19 66 -9z m104
-893 c0 -15 1 -15 18 0 18 16 72 23 85 11 3 -3 1 -17 -5 -30 -9 -18 -16 -22
-34 -18 -38 10 -70 -35 -91 -129 -18 -78 -20 -82 -47 -85 -25 -3 -28 -1 -23
20 3 13 16 74 29 136 21 103 24 112 45 112 15 0 23 -6 23 -17z m301 -12 c24
-25 29 -37 29 -81 0 -91 -43 -152 -115 -166 -43 -8 -100 11 -120 39 -22 31
-19 119 5 167 25 49 61 69 123 70 41 0 53 -5 78 -29z m284 4 c29 -28 30 -39
10 -120 -8 -33 -14 -75 -15 -92 0 -28 -4 -33 -24 -33 -13 0 -26 5 -28 11 -2 6
-14 5 -33 -5 -47 -25 -83 -20 -117 14 -25 26 -29 36 -24 63 9 45 36 68 87 73
98 11 109 14 109 34 0 20 -27 40 -55 40 -9 0 -27 -11 -41 -25 -26 -26 -74 -34
-74 -12 1 16 30 52 55 65 11 6 44 12 73 12 43 0 57 -5 77 -25z m425 8 c0 -15
1 -15 18 0 10 10 33 17 51 17 30 0 33 -3 27 -22 -3 -13 -6 -27 -6 -31 0 -5 -9
-6 -20 -2 -24 8 -56 -9 -72 -38 -6 -12 -19 -56 -28 -97 -15 -69 -18 -75 -43
-78 -15 -2 -27 0 -27 5 0 4 12 65 27 136 25 119 28 127 50 127 15 0 23 -6 23
-17z"/>
<path d="M4800 302 c-56 -57 -48 -153 14 -160 68 -8 126 118 76 168 -28 28
-57 25 -90 -8z"/>
<path d="M5070 207 c-29 -14 -33 -45 -8 -61 26 -16 69 4 91 42 l19 32 -39 0
c-21 0 -49 -6 -63 -13z"/>
<path d="M1255 1326 c-172 -40 -317 -142 -405 -285 l-32 -51 -374 0 -374 0 0
-260 0 -260 125 0 125 0 0 160 c0 136 -2 160 -15 160 -10 0 -15 11 -15 35 l0
35 97 0 c77 0 105 -4 139 -20 67 -33 91 -105 59 -174 -21 -44 -63 -66 -124
-66 l-51 0 0 -65 0 -65 208 0 208 0 16 -33 c29 -62 116 -154 192 -205 208
-139 469 -140 678 -3 80 52 131 104 184 187 l35 54 374 0 375 0 0 260 0 260
-145 0 -145 0 0 -165 0 -165 70 0 70 0 0 -30 0 -30 -115 0 -115 0 0 195 0 195
-184 0 -184 0 -26 45 c-38 64 -128 158 -194 201 -125 83 -320 122 -457 90z
m185 -186 c92 -15 177 -59 239 -125 l52 -55 270 0 269 0 0 -30 0 -30 -1055 0
-1055 0 0 -165 0 -165 65 0 65 0 0 -30 0 -30 -95 0 -95 0 0 225 0 225 459 0
460 0 52 55 c74 78 165 120 294 134 6 0 39 -4 75 -9z m1200 -405 l0 -225 -452
0 -453 0 -48 -55 c-34 -39 -69 -65 -124 -92 -75 -37 -80 -38 -187 -38 -104 0
-115 2 -180 32 -46 23 -87 52 -126 93 l-58 60 -286 0 -286 0 0 30 0 30 1070 0
1070 0 0 165 0 165 -80 0 -80 0 0 30 0 30 110 0 110 0 0 -225z m-1812 119 c70
-14 98 -92 47 -132 l-24 -19 25 -34 c51 -68 51 -69 -9 -69 -54 0 -54 0 -78 45
-14 27 -31 45 -41 45 -15 0 -18 -9 -18 -45 l0 -45 -40 0 -40 0 0 130 0 130 74
0 c40 0 87 -3 104 -6z m342 -15 c130 -73 70 -249 -86 -249 -148 0 -205 167
-85 247 45 30 119 31 171 2z m290 -9 c0 -27 -3 -30 -30 -30 l-30 0 0 -100 0
-100 -40 0 -40 0 0 100 0 100 -30 0 c-27 0 -30 3 -30 30 l0 30 100 0 100 0 0
-30z m120 -100 l0 -130 -35 0 -35 0 0 130 0 130 35 0 35 0 0 -130z m212 68
l43 -61 3 61 3 62 39 0 40 0 0 -130 0 -130 -39 0 c-38 0 -42 3 -93 76 l-53 76
-3 -76 -3 -76 -39 0 -40 0 0 130 0 130 49 0 c50 0 50 0 93 -62z m426 -61 c29
-67 52 -126 52 -130 0 -4 -18 -7 -40 -7 -33 0 -42 4 -52 25 -10 22 -17 25 -63
25 -46 0 -53 -3 -63 -25 -10 -21 -19 -25 -52 -25 -22 0 -40 2 -40 4 0 5 98
235 106 247 3 5 26 9 52 9 l48 0 52 -123z"/>
<path d="M730 770 c0 -24 4 -30 21 -30 28 0 59 18 59 34 0 16 -22 26 -56 26
-20 0 -24 -5 -24 -30z"/>
<path d="M1047 770 c-33 -26 -35 -63 -5 -84 34 -24 73 -20 96 9 46 59 -31 122
-91 75z"/>
<path d="M2101 740 c-14 -42 -15 -40 14 -40 28 0 31 13 11 49 l-13 24 -12 -33z"/>
<path d="M410 730 c0 -59 0 -60 29 -60 15 0 40 9 55 21 50 40 22 99 -47 99
l-37 0 0 -60z"/>
<path d="M4382 314 c-48 -33 -69 -125 -36 -158 32 -33 75 -14 98 44 21 54 20
86 -4 110 -24 24 -29 24 -58 4z"/>
<path d="M5361 303 c-72 -73 -32 -186 51 -142 39 21 61 109 36 141 -25 31 -56
32 -87 1z"/>
<path d="M5822 315 c-48 -35 -66 -110 -36 -153 34 -49 114 -4 128 72 13 68
-41 116 -92 81z"/>
</g>
</svg>
